# xmcd
#
# Track frame offsets:
#	150
#	15757
#	36464
#	52484
#	68336
#	84800
#	108302
#	126070
#	146864
#	164293
#	187069
#
# Disc length: 2842 seconds
#
# Revision: 1
# Processed by: cddbd v1.4PL0 Copyright (c) Steve Scherf et al.
# Submitted via: audiograbber 1.80
#
DISCID=910b180b
DTITLE=Stefan Banica Jr. - De Dragoste ..In Toate Felurile
DYEAR=1900
DGENRE=
TTITLE0=Gaseste-Mi Loc In Inima Ta
TTITLE1=Am Uitat
TTITLE2=Fata Din Visul Meu
TTITLE3=Georget
TTITLE4=Asta A Fost, Atat A Ramas
TTITLE5=Inca O Zi
TTITLE6=Asta-S Eu
TTITLE7=Te Iubesc (Femeie)
TTITLE8=Marius Cocoon
TTITLE9=Fiara
TTITLE10=Iani
EXTD=(C) 2001 \nhttp://shefu.3x.ro
EXTT0=
EXTT1=
EXTT2=
EXTT3=
EXTT4=
EXTT5=
EXTT6=
EXTT7=
EXTT8=
EXTT9=
EXTT10=
PLAYORDER=
